<svg width="64" height="64" viewBox="0 0 64 64" fill="none" xmlns="http://www.w3.org/2000/svg">
  <!-- Rounded Rect Background (Neobrutalist) -->
  <rect x="2" y="2" width="60" height="60" rx="4" fill="black" stroke="black" stroke-width="4"/>
  <rect x="6" y="6" width="52" height="52" rx="2" fill="#171717"/>
  
  <!-- Shield Shape -->
  <path d="M32 14L46 20V34C46 42 40 48 32 50C24 48 18 42 18 34V20L32 14Z" fill="#22C55E" stroke="white" stroke-width="2"/>
  
  <!-- Central Leaf/Seed -->
  <path d="M32 22C32 22 28 26 28 32C28 38 32 42 32 42C32 42 36 38 36 32C36 26 32 22 32 22Z" fill="white"/>
  
  <!-- Subtle Circuit Lines -->
  <path d="M22 24L26 28M42 24L38 28" stroke="white" stroke-width="2" stroke-linecap="round"/>
</svg>
